<svg width="800" height="800" viewBox="0 0 800 800" fill="none" xmlns="http://www.w3.org/2000/svg">
<path d="M740.703 548.438C729.922 548.438 724.531 540.781 720.625 535.156C716.641 529.453 714.609 527.188 710.703 527.188C706.797 527.188 704.844 529.531 700.781 535.156C696.797 540.781 691.406 548.438 680.703 548.438C670 548.438 664.531 540.781 660.625 535.156C656.641 529.453 654.609 527.188 650.703 527.188C646.797 527.188 644.844 529.531 640.781 535.156C636.797 540.781 631.406 548.438 620.703 548.438C609.922 548.438 604.531 540.781 600.625 535.156C596.641 529.453 594.609 527.188 590.703 527.188C587.266 527.188 584.453 524.375 584.453 520.938C584.453 517.5 587.266 514.688 590.703 514.688C601.484 514.688 606.875 522.344 610.781 527.969C614.766 533.672 616.797 535.938 620.703 535.938C624.609 535.938 626.563 533.594 630.625 527.969C634.609 522.344 640 514.688 650.703 514.688C661.484 514.688 666.875 522.344 670.781 527.969C674.766 533.672 676.797 535.938 680.703 535.938C684.609 535.938 686.563 533.594 690.625 527.969C694.609 522.344 700 514.688 710.703 514.688C721.406 514.688 726.875 522.344 730.781 527.969C734.766 533.672 736.797 535.938 740.703 535.938C744.141 535.938 746.953 538.75 746.953 542.188C746.953 545.625 744.141 548.438 740.703 548.438ZM740.703 509.375C729.922 509.375 724.531 501.719 720.625 496.094C716.641 490.391 714.609 488.125 710.703 488.125C706.797 488.125 704.844 490.469 700.781 496.094C696.797 501.719 691.406 509.375 680.703 509.375C670 509.375 664.531 501.719 660.625 496.094C656.641 490.391 654.609 488.125 650.703 488.125C646.797 488.125 644.844 490.469 640.781 496.094C636.797 501.719 631.406 509.375 620.703 509.375C609.922 509.375 604.531 501.719 600.625 496.094C596.641 490.391 594.609 488.125 590.703 488.125C587.266 488.125 584.453 485.313 584.453 481.875C584.453 478.437 587.266 475.625 590.703 475.625C601.484 475.625 606.875 483.281 610.781 488.906C614.766 494.609 616.797 496.875 620.703 496.875C624.609 496.875 626.563 494.531 630.625 488.906C634.609 483.281 640 475.625 650.703 475.625C661.484 475.625 666.875 483.281 670.781 488.906C674.766 494.609 676.797 496.875 680.703 496.875C684.609 496.875 686.563 494.531 690.625 488.906C694.609 483.281 700 475.625 710.703 475.625C721.406 475.625 726.875 483.281 730.781 488.906C734.766 494.609 736.797 496.875 740.703 496.875C744.141 496.875 746.953 499.688 746.953 503.125C746.953 506.563 744.141 509.375 740.703 509.375Z" fill="#9A2D2F"/>
<path d="M239.922 79.9219C239.922 86.5523 242.556 92.9111 247.244 97.5995C251.933 102.288 258.291 104.922 264.922 104.922C271.552 104.922 277.911 102.288 282.6 97.5995C287.288 92.9111 289.922 86.5523 289.922 79.9219C289.922 73.2915 287.288 66.9326 282.6 62.2442C277.911 57.5558 271.552 54.9219 264.922 54.9219C258.291 54.9219 251.933 57.5558 247.244 62.2442C242.556 66.9326 239.922 73.2915 239.922 79.9219Z" fill="#FFEB4D"/>
<path d="M720.625 748.672H76.875C73.4375 748.672 70.625 745.859 70.625 742.422C70.625 738.984 73.4375 736.172 76.875 736.172H720.625C724.063 736.172 726.875 738.984 726.875 742.422C726.875 745.859 724.063 748.672 720.625 748.672Z" fill="#9A2D2F"/>
<path d="M380.156 211.094L397.969 212.734L368.828 742.422H310.312L380.156 211.094Z" fill="#FFD7F5"/>
<path d="M387.891 232.735L392.969 187.891C392.969 187.891 260.781 156.797 194.062 184.063C142.031 205.313 122.891 253.906 122.656 297.969C122.656 304.297 169.766 171.719 387.891 232.735Z" fill="#FFACC2"/>
<path d="M389.609 214.844L393.438 183.906C393.438 183.906 324.531 96.6405 246.953 103.75C181.172 109.844 155.078 147.422 139.453 174.922C131.406 189.14 257.266 91.0936 389.609 214.844Z" fill="#FFEB4D"/>
<path d="M389.688 232.657L387.734 187.579C387.734 187.579 510.156 161.329 580.234 202.11C638.047 235.782 652.5 272.422 649.687 316.329C649.297 322.657 608.438 196.485 389.688 232.657Z" fill="#DAE5FF"/>
<path d="M389.297 214.687L387.656 183.593C387.656 183.593 464.219 108.672 541.641 116.64C606.016 123.281 627.969 163.984 641.641 192.5C648.672 207.187 530 100.547 389.297 214.687Z" fill="#A7F9CE"/>
<path d="M500.781 686.172C500.781 696.117 504.732 705.656 511.765 712.688C518.797 719.721 528.336 723.672 538.281 723.672C548.227 723.672 557.765 719.721 564.798 712.688C571.83 705.656 575.781 696.117 575.781 686.172C575.781 676.226 571.83 666.688 564.798 659.655C557.765 652.623 548.227 648.672 538.281 648.672C528.336 648.672 518.797 652.623 511.765 659.655C504.732 666.688 500.781 676.226 500.781 686.172Z" fill="#A7F9CE"/>
<path d="M597.656 742.422H522.656V729.922C522.656 709.297 539.531 692.422 560.156 692.422C580.781 692.422 597.656 709.297 597.656 729.922V742.422Z" fill="#F7D4FF"/>
<path d="M546.094 742.109H446.094V717.109C446.094 689.609 468.594 667.109 496.094 667.109C523.594 667.109 546.094 689.609 546.094 717.109V742.109Z" fill="#FFACC2"/>
<path d="M581.641 691.875C581.875 690 582.031 688.125 582.031 686.172C582.031 662.031 562.422 642.422 538.281 642.422C523.438 642.422 510.312 649.844 502.422 661.172C500.391 660.937 498.281 660.781 496.094 660.781C465.078 660.781 439.844 686.016 439.844 717.031V742.031C439.844 745.469 442.656 748.281 446.094 748.281H520.625C521.25 748.516 521.953 748.594 522.656 748.594H597.656C601.094 748.594 603.906 745.781 603.906 742.344V729.844C603.906 713.594 594.922 699.375 581.641 691.875ZM538.281 654.922C555.547 654.922 569.531 668.906 569.531 686.172V687.187C566.484 686.562 563.359 686.172 560.156 686.172C554.766 686.172 549.531 687.188 544.766 688.984C538.281 677.813 528.047 669.063 515.859 664.453C521.562 658.594 529.531 654.922 538.281 654.922ZM516.406 735.859H452.344V717.109C452.344 692.969 471.953 673.359 496.094 673.359H496.484C500.859 673.359 505.078 674.063 509.062 675.313C519.609 678.594 528.438 685.703 533.906 695C536.094 698.75 537.734 702.891 538.75 707.188C539.453 710.391 539.922 713.672 539.922 717.031V735.781H516.406V735.859ZM591.406 736.172H552.344V717.109C552.344 716.094 552.344 715.078 552.266 714.141C552.031 709.375 551.172 704.844 549.844 700.469C553.047 699.297 556.563 698.672 560.156 698.672C562.344 698.672 564.531 698.906 566.641 699.375C570.859 700.234 574.687 701.953 578.125 704.375C586.172 710 591.484 719.375 591.484 729.922V736.172H591.406Z" fill="#9A2D2F"/>
<path d="M247.5 110C226.328 111.953 208.281 117.266 192.812 126.25C198.984 126.328 205.781 125.703 213.281 124.063C229.453 120.547 240.625 139.297 264.922 141.25C293.828 143.516 299.609 130.703 326.953 144.766C336.328 149.532 343.672 150.547 349.531 149.375C348.125 148.203 346.719 147.11 345.234 145.938C321.641 127.657 285.469 106.485 247.5 110ZM439.063 152.344C430 157.891 421.953 163.594 415.078 168.75C427.656 168.907 442.813 165.547 455.469 154.844C489.844 125.86 516.406 144.453 527.344 135.078C530.547 132.344 533.906 127.735 537.109 122.657C500.234 120.157 463.594 137.266 439.063 152.344Z" fill="white"/>
<path d="M642.344 253.984C630.859 233.281 611.25 215.078 582.578 198.359C557.266 183.594 523.281 175.703 481.25 174.688C500.625 169.844 520.391 168.125 540.313 169.609C581.797 172.734 613.281 189.063 628.359 196.797C631.328 198.281 633.672 199.531 635.469 200.312C637.344 201.172 641.875 203.125 645.313 199.766C646.172 198.984 648.672 196.016 646.406 191.328C639.063 176.094 630 158.516 614.141 143.359C595.234 125.312 571.484 115 541.484 111.953C508.438 108.516 470.391 119.375 431.484 143.281C413.203 154.531 398.828 166.094 390.469 173.281C382.891 164.844 369.609 151.172 352.266 137.734C329.766 120.234 307.188 108.516 285.313 102.734C291.484 97.0313 295.313 88.9062 295.313 79.8437C295.313 62.5781 281.328 48.5938 264.063 48.5938C246.797 48.5938 232.813 62.5781 232.813 79.8437C232.813 87.3437 235.469 94.2187 239.922 99.6875C218.281 102.344 199.219 108.75 182.891 118.672C180.234 117.109 177.031 116.094 173.047 116.094C162.266 116.094 156.875 123.75 152.969 129.375C148.984 135.078 146.953 137.344 143.047 137.344C139.141 137.344 137.188 135 133.125 129.375C129.141 123.75 123.75 116.094 113.047 116.094C102.344 116.094 96.875 123.75 92.9688 129.375C88.9844 135.078 86.9531 137.344 83.0469 137.344C79.1406 137.344 77.1875 135 73.125 129.375C69.1406 123.75 63.75 116.094 53.0469 116.094C49.6094 116.094 46.7969 118.906 46.7969 122.344C46.7969 125.781 49.6094 128.594 53.0469 128.594C56.9531 128.594 58.9062 130.938 62.9688 136.563C66.9531 142.188 72.3438 149.844 83.0469 149.844C93.75 149.844 99.2188 142.188 103.125 136.563C107.109 130.859 109.141 128.594 113.047 128.594C116.953 128.594 118.906 130.938 122.969 136.563C126.953 142.188 132.344 149.844 143.047 149.844C145.391 149.844 147.422 149.453 149.219 148.828C142.734 157.188 137.5 165.547 133.125 173.359C132.656 174.141 132.344 174.922 132.188 175.625C129.609 175.313 127.891 172.969 124.766 167.969C121.172 162.266 116.25 154.375 106.172 154.375C96.0937 154.375 91.1719 162.266 87.5781 167.969C84.2188 173.359 82.5 175.703 79.6094 175.703C76.7188 175.703 75 173.359 71.6406 167.969C68.0469 162.266 63.125 154.375 53.0469 154.375C49.6094 154.375 46.7969 157.188 46.7969 160.625C46.7969 164.063 49.6094 166.875 53.0469 166.875C55.9375 166.875 57.6562 169.219 61.0156 174.609C64.6094 180.312 69.5313 188.203 79.6094 188.203C89.6875 188.203 94.6094 180.312 98.2031 174.609C101.563 169.219 103.281 166.875 106.172 166.875C109.062 166.875 110.781 169.219 114.141 174.609C117.734 180.312 122.656 188.203 132.734 188.203C138.594 188.203 142.656 185.625 145.781 182.266C147.188 181.719 148.828 181.016 150.703 180.156C166.328 173.437 198.906 159.453 240.469 159.219H241.563C262.5 159.219 282.969 162.734 302.891 169.766C254.453 165.938 216.797 169.375 190.859 179.922C165.313 190.312 145.781 207.578 132.656 231.094C121.641 250.859 115.703 274.531 115.547 299.531C115.547 302.5 117.422 305.078 120.234 305.781C120.859 305.938 121.484 306.016 122.109 306.016C125.703 306.016 127.578 302.812 128.984 300.312C143.125 276.094 163.281 257.188 188.906 244.297C211.016 233.125 236.719 226.562 265.547 224.844C296.797 222.969 331.875 226.797 370 236.172L303.359 740.781C303.125 742.578 303.672 744.375 304.844 745.703C306.016 747.031 307.734 747.812 309.531 747.812H368.047C371.328 747.812 374.141 745.234 374.297 741.875L402.188 238.438C476.953 227.813 537.969 235.547 583.828 261.484C621.328 282.734 636.563 309.609 641.563 318.438C643.125 321.172 645 324.453 648.594 324.453C649.063 324.453 649.609 324.375 650.156 324.297C652.891 323.672 654.922 321.25 655.078 318.359C656.797 293.047 652.734 272.578 642.344 253.984ZM264.141 61.1719C274.453 61.1719 282.891 69.6094 282.891 79.9219C282.891 90.2344 274.453 98.6719 264.141 98.6719C253.828 98.6719 245.391 90.2344 245.391 79.9219C245.391 69.6094 253.75 61.1719 264.141 61.1719ZM241.719 146.719H240.547C201.719 146.953 170.625 158.359 152.5 165.859C158.906 156.25 166.953 146.406 177.578 137.734C196.016 122.734 218.672 114.141 246.797 111.563C284.766 108.047 320.859 129.141 344.453 147.5C360.234 159.766 372.734 172.422 380.156 180.547C380.625 181.016 381.484 182.031 381.484 182.031V201.562C381.406 201.484 381.328 201.484 381.25 201.406C376.953 197.812 372.656 194.375 368.281 191.094C359.844 184.766 351.25 179.141 342.578 174.219C310.547 155.938 276.875 146.719 241.719 146.719ZM183.281 233.203C162.031 243.984 144.219 258.516 130.078 276.562C132.5 262.266 137.031 248.984 143.594 237.188C155.313 216.25 172.813 200.859 195.625 191.484C215.078 183.516 240.547 180.781 266.719 180.781C291.641 180.781 317.109 183.281 338.438 186.25C350.313 193.203 361.953 201.484 373.359 211.094C376.25 213.516 379.141 216.094 381.953 218.672L381.719 226.406C378.281 225.469 374.922 224.688 371.563 223.828C295.625 205.234 232.344 208.359 183.281 233.203ZM362.109 735.391H316.641L382.188 239.453C383.281 239.766 384.375 240 385.469 240.312C386.406 240.547 387.344 240.625 388.281 240.391H389.531L362.109 735.391ZM398.438 183.125C398.438 183.125 400.625 181.25 401.875 180.234C410.156 173.281 422.891 163.438 438.359 153.906C463.75 138.281 502.109 120.547 540.234 124.453C590.078 129.609 612.891 155.391 627.969 182.578C610.469 173.828 580.234 160.156 541.328 157.188C507.031 154.531 473.516 160.781 441.016 175.781C431.406 180.234 421.875 185.391 412.5 191.328C407.344 194.609 402.266 198.047 397.188 201.719C397.109 201.797 397.031 201.797 396.953 201.875L398.438 183.125ZM589.922 250.703C555.469 231.172 513.125 221.406 463.594 221.406C444.453 221.406 424.141 222.891 402.813 225.781L394.844 226.953L395.156 218.906C397.813 216.797 400.547 214.688 403.203 212.734C416.641 202.891 430.234 194.687 444.063 188.125C484.609 185.391 538.672 187.188 576.328 209.141C603.047 224.688 621.094 241.328 631.484 260.078C637.656 271.172 641.25 283.125 642.5 296.719C632.891 283.594 616.641 265.781 589.922 250.703Z" fill="#9A2D2F"/>
<path d="M415.703 341.797L428.125 342.812L407.656 742.031H366.641L415.703 341.797Z" fill="#DAE5FF"/>
<path d="M421.016 358.438L424.609 327.032C424.609 327.032 332.031 305.313 285.234 324.375C248.828 339.219 235.391 373.282 235.156 404.063C235.156 408.516 268.203 315.704 421.016 358.438Z" fill="#FFACC2"/>
<path d="M422.188 345.859L424.844 324.219C424.844 324.219 376.562 263.125 322.187 268.125C276.094 272.344 257.813 298.75 246.875 317.969C241.25 327.891 329.453 259.219 422.188 345.859Z" fill="#FFEB4D"/>
<path d="M422.266 358.359L420.938 326.796C420.938 326.796 506.719 308.359 555.859 336.953C596.406 360.546 606.484 386.172 604.531 416.953C604.219 421.328 575.547 332.968 422.266 358.359Z" fill="#DAE5FF"/>
<path d="M421.953 345.781L420.781 323.984C420.781 323.984 474.375 271.562 528.672 277.109C573.75 281.797 589.141 310.234 598.75 330.234C603.75 340.469 520.547 265.859 421.953 345.781Z" fill="#A7F9CE"/>
<path d="M601.562 371.25C593.359 356.406 579.375 343.437 558.984 331.562C542.5 321.953 522.266 317.343 502.5 315.546C543.672 310.234 575.547 326.64 589.297 333.75C591.406 334.843 593.047 335.703 594.375 336.25C595.781 336.875 600 338.75 603.359 335.468C605 333.828 606.172 330.859 604.531 327.343C599.375 316.484 592.812 304.062 581.484 293.281C568.125 280.546 550.625 272.968 529.453 270.781C505.859 268.359 478.828 276.015 451.25 292.968C439.297 300.312 429.687 307.812 423.672 312.968C418.125 306.953 409.219 297.968 397.891 289.218C371.953 269.062 345.625 259.531 321.797 261.718C268.984 266.562 249.766 300.312 241.563 314.687C239.609 318.046 240.625 321.093 242.109 322.812C245.234 326.25 249.531 324.687 251.016 324.218C252.344 323.75 254.062 322.968 256.25 322.031C270.625 315.859 304.062 301.484 345.234 310.156C322.891 309.531 300.156 311.328 282.969 318.359C264.688 325.859 250.625 338.125 241.25 355C233.359 369.14 229.141 386.015 228.984 403.828C228.984 406.796 230.859 409.296 233.594 410.078C234.219 410.234 234.844 410.312 235.469 410.312C238.984 410.312 240.781 407.187 241.875 405.39C251.641 388.75 265.469 375.781 283.125 366.875C315 350.703 356.719 348.75 407.109 360.937L360.547 741.015C360.312 742.812 360.859 744.609 362.031 745.937C363.203 747.265 364.922 748.046 366.719 748.046H407.734C411.094 748.046 413.828 745.468 413.984 742.109L433.437 362.734C484.687 355.703 526.562 361.093 558.047 378.828C583.906 393.437 594.375 411.875 597.813 417.968C598.906 419.921 600.703 423.125 604.375 423.125C604.844 423.125 605.391 423.046 605.937 422.968C608.672 422.343 610.625 420 610.859 417.109C611.875 399.296 608.906 384.609 601.562 371.25ZM528.125 283.359C558.906 286.562 574.609 301.25 585 317.812C572.266 311.796 552.969 304.375 529.219 302.578C505.078 300.703 481.406 305.078 458.437 315.546C449.062 319.843 439.844 325.156 430.703 331.406C430.547 331.484 430.469 331.562 430.312 331.64L430.234 331.718C430.234 331.718 430.781 325.703 431.016 323.203C432.891 321.64 435.156 319.687 437.813 317.656C456.328 303.125 492.422 279.687 528.125 283.359ZM319.141 295.234H318.281C294.609 295.39 275 301.328 261.797 306.406C265.547 301.484 269.922 296.64 275.312 292.265C287.969 281.953 303.438 276.093 322.813 274.375C359.766 270.937 394.609 301.25 410.703 317.812C412.266 319.453 413.672 320.859 414.844 322.187C414.922 325.234 414.922 331.328 414.922 331.328C406.875 324.843 398.672 319.218 390.312 314.453C367.734 301.64 343.906 295.234 319.141 295.234ZM277.344 355.937C264.531 362.421 253.516 370.781 244.297 381.015C248.828 362.89 260.156 341.328 287.578 330.156C301.016 324.687 318.594 322.734 336.641 322.734C353.828 322.734 371.484 324.453 386.25 326.484C393.828 330.937 401.484 336.328 409.219 342.734C411.328 344.453 413.438 346.328 415.547 348.203L415.625 350.234V350.39C413.203 349.765 410.859 349.218 408.516 348.671C355.781 336.171 311.719 338.593 277.344 355.937ZM401.719 735.781H373.75L419.219 364.375H419.375C419.844 364.531 420.312 364.531 420.703 364.609L401.719 735.781ZM564.062 368.203C539.609 354.375 509.687 347.5 474.609 347.5C461.719 347.5 448.203 348.437 433.984 350.312C432.109 350.546 430.156 350.859 428.203 351.093L428.438 348.671C430.391 347.109 432.344 345.625 434.297 344.218C443.516 337.5 452.578 332.109 461.406 327.89C489.453 326.015 526.797 327.343 552.656 342.343C571.094 353.125 583.516 364.531 590.625 377.343C593.75 382.968 595.938 388.906 597.188 395.39C590.078 386.953 579.531 376.953 564.062 368.203Z" fill="#9A2D2F"/>
</svg>